<svg width="42" height="42" viewBox="0 0 42 42" fill="none" xmlns="http://www.w3.org/2000/svg">
<path d="M25 35.6521C32.542 35.6521 36.314 35.6521 38.656 33.1139C41 30.5778 41 26.4932 41 18.3261C41 10.159 41 6.07437 38.656 3.53827C36.314 1 32.542 1 25 1H17C9.458 1 5.686 1 3.344 3.53827C1 6.07437 1 10.159 1 18.3261C1 26.4932 1 30.5778 3.344 33.1139C4.65 34.5303 6.4 35.1562 9 35.4312" stroke="#929292" stroke-width="2" stroke-linecap="round" stroke-linejoin="round"/>
<path d="M25 35.6522C22.528 35.6522 19.804 36.7351 17.318 38.132C13.322 40.3779 11.324 41.502 10.34 40.7851C9.35599 40.0704 9.54199 37.8505 9.91599 33.4128L9.99999 32.4036M21 18.3262V18.3478V18.3262ZM13 18.3262V18.3478V18.3262ZM29 18.3262V18.3478V18.3262Z" stroke="#929292" stroke-width="2" stroke-linecap="round"/>
</svg>
